<svg width="1000" height="1000" viewBox="0 0 1000 1000" fill="none" xmlns="http://www.w3.org/2000/svg">
<path d="M1000 0H0V1000H1000V0Z" fill="#047857"/>
<path d="M413.398 664.902C409.702 664.909 406.069 663.942 402.866 662.1C399.662 660.257 397 657.603 395.148 654.404L242.694 393.799L395.196 135.504C396.609 133.114 398.48 131.025 400.7 129.358C402.921 127.69 405.448 126.477 408.137 125.786C410.827 125.095 413.626 124.941 416.375 125.332C419.125 125.723 421.77 126.651 424.16 128.065C426.55 129.478 428.639 131.348 430.307 133.569C431.974 135.789 433.188 138.316 433.879 141.006C434.57 143.696 434.724 146.495 434.333 149.244C433.942 151.993 433.013 154.639 431.6 157.029L291.955 393.895L431.841 633.073C433.724 636.285 434.725 639.938 434.743 643.661C434.76 647.385 433.794 651.047 431.942 654.278C430.09 657.508 427.417 660.192 424.195 662.057C420.972 663.923 417.314 664.904 413.591 664.902H413.398Z" fill="white"/>
<path d="M586.557 664.901C582.816 664.906 579.141 663.908 575.915 662.012C571.088 659.178 567.577 654.548 566.152 649.135C564.726 643.721 565.501 637.964 568.307 633.12L708.193 393.894L568.211 157.028C565.649 152.211 565.044 146.592 566.522 141.34C568 136.089 571.447 131.609 576.145 128.836C580.842 126.062 586.429 125.207 591.741 126.449C597.054 127.691 601.682 130.934 604.663 135.503L757.116 393.798L604.855 654.403C602.988 657.599 600.316 660.25 597.106 662.091C593.895 663.933 590.258 664.902 586.557 664.901V664.901Z" fill="white"/>
<path d="M458.803 575.72C457.017 575.707 455.239 575.48 453.506 575.046C448.055 573.65 443.381 570.149 440.51 565.309C437.638 560.47 436.805 554.689 438.193 549.236L520.68 230.172C521.376 227.481 522.594 224.954 524.267 222.734C525.939 220.515 528.032 218.646 530.427 217.235C532.821 215.824 535.47 214.899 538.222 214.512C540.974 214.125 543.775 214.284 546.466 214.98C549.157 215.675 551.684 216.894 553.904 218.566C556.123 220.239 557.992 222.332 559.403 224.726C560.814 227.121 561.739 229.769 562.126 232.522C562.513 235.274 562.354 238.075 561.658 240.766L479.268 559.83C478.103 564.374 475.461 568.401 471.755 571.278C468.05 574.155 463.494 575.717 458.803 575.72V575.72Z" fill="white"/>
<path d="M577.455 708.143H422.546C410.126 708.143 400.058 718.211 400.058 730.631C400.058 743.05 410.126 753.118 422.546 753.118H577.455C589.874 753.118 599.943 743.05 599.943 730.631C599.943 718.211 589.874 708.143 577.455 708.143Z" fill="white"/>
<path d="M557.473 769.009H442.531C430.111 769.009 420.043 779.077 420.043 791.497C420.043 803.916 430.111 813.984 442.531 813.984H557.473C569.893 813.984 579.961 803.916 579.961 791.497C579.961 779.077 569.893 769.009 557.473 769.009Z" fill="white"/>
<path d="M537.487 829.923H462.512C450.092 829.923 440.024 839.991 440.024 852.41C440.024 864.83 450.092 874.898 462.512 874.898H537.487C549.906 874.898 559.974 864.83 559.974 852.41C559.974 839.991 549.906 829.923 537.487 829.923Z" fill="white"/>
</svg>
