<svg width="2000" height="2000" viewBox="0 0 2000 2000" fill="none" xmlns="http://www.w3.org/2000/svg">
<rect width="2000" height="2000" fill="white"/>
<path d="M826.796 1329.8C819.404 1329.82 812.139 1327.88 805.731 1324.2C799.324 1320.51 794 1315.21 790.295 1308.81L485.389 787.597L790.392 271.008C793.218 266.228 796.959 262.051 801.4 258.716C805.841 255.381 810.895 252.953 816.274 251.571C821.654 250.19 827.252 249.881 832.751 250.663C838.249 251.445 843.54 253.302 848.32 256.129C853.101 258.956 857.278 262.696 860.613 267.137C863.948 271.578 866.376 276.632 867.757 282.012C869.139 287.391 869.448 292.989 868.666 298.488C867.884 303.986 866.026 309.277 863.2 314.057L583.91 787.79L863.681 1266.14C867.447 1272.57 869.449 1279.88 869.485 1287.32C869.521 1294.77 867.589 1302.09 863.884 1308.55C860.18 1315.02 854.835 1320.38 848.39 1324.11C841.945 1327.85 834.628 1329.81 827.181 1329.8H826.796Z" fill="black"/>
<path d="M1173.11 1329.8C1165.63 1329.81 1158.28 1327.82 1151.83 1324.02C1142.17 1318.36 1135.15 1309.1 1132.3 1298.27C1129.45 1287.44 1131 1275.93 1136.61 1266.24L1416.38 787.788L1136.42 314.056C1131.3 304.422 1130.09 293.184 1133.04 282.681C1136 272.177 1142.89 263.219 1152.29 257.671C1161.68 252.123 1172.86 250.413 1183.48 252.898C1194.11 255.382 1203.36 261.868 1209.33 271.007L1514.23 787.596L1209.71 1308.81C1205.98 1315.2 1200.63 1320.5 1194.21 1324.18C1187.79 1327.87 1180.52 1329.8 1173.11 1329.8V1329.8Z" fill="black"/>
<path d="M917.606 1151.44C914.034 1151.41 910.477 1150.96 907.012 1150.09C896.11 1147.3 886.761 1140.3 881.019 1130.62C875.277 1120.94 873.611 1109.38 876.387 1098.47L1041.36 460.344C1042.75 454.962 1045.19 449.908 1048.53 445.468C1051.88 441.029 1056.06 437.292 1060.85 434.47C1065.64 431.649 1070.94 429.798 1076.44 429.024C1081.95 428.25 1087.55 428.568 1092.93 429.959C1098.31 431.35 1103.37 433.788 1107.81 437.132C1112.25 440.477 1115.98 444.663 1118.81 449.452C1121.63 454.241 1123.48 459.539 1124.25 465.043C1125.03 470.547 1124.71 476.15 1123.32 481.531L958.536 1119.66C956.207 1128.75 950.921 1136.8 943.511 1142.56C936.101 1148.31 926.987 1151.44 917.606 1151.44V1151.44Z" fill="black"/>
<path d="M1154.91 1416.29H845.092C820.253 1416.29 800.117 1436.42 800.117 1461.26C800.117 1486.1 820.253 1506.24 845.092 1506.24H1154.91C1179.75 1506.24 1199.89 1486.1 1199.89 1461.26C1199.89 1436.42 1179.75 1416.29 1154.91 1416.29Z" fill="black"/>
<path d="M1114.95 1538.02H885.063C860.224 1538.02 840.088 1558.15 840.088 1582.99C840.088 1607.83 860.224 1627.97 885.063 1627.97H1114.95C1139.79 1627.97 1159.92 1607.83 1159.92 1582.99C1159.92 1558.15 1139.79 1538.02 1114.95 1538.02Z" fill="black"/>
<path d="M1074.97 1659.85H925.024C900.185 1659.85 880.049 1679.98 880.049 1704.82C880.049 1729.66 900.185 1749.8 925.024 1749.8H1074.97C1099.81 1749.8 1119.95 1729.66 1119.95 1704.82C1119.95 1679.98 1099.81 1659.85 1074.97 1659.85Z" fill="black"/>
</svg>
